<svg xmlns="http://www.w3.org/2000/svg" xmlns:xlink="http://www.w3.org/1999/xlink" xml:space="preserve" version="1.1" style="shape-rendering:geometricPrecision;text-rendering:geometricPrecision;image-rendering:optimizeQuality;" viewBox="0 0 209.09 245.76250000000002" x="0px" y="0px" fill-rule="evenodd" clip-rule="evenodd"><defs><style type="text/css">
   
    .fil0 {fill:black}
   
  </style></defs><g><path class="fil0" d="M41.19 150.14l0 36.27c0,5.61 -4.59,10.2 -10.21,10.2l-16.06 0c-5.62,0 -10.21,-4.59 -10.21,-10.2l0 -37.95c1.96,1.07 4.19,1.68 6.57,1.68l29.9 0zm163.19 -1.68l0 37.94c0,5.61 -4.59,10.2 -10.21,10.2l-16.06 0c-5.62,0 -10.21,-4.59 -10.21,-10.2l0 -36.27 29.91 0c2.37,0 4.61,-0.61 6.57,-1.68z"/><path class="fil0" d="M20.07 63.37l168.95 0 0 -52.08c0,-0.36 -0.29,-0.65 -0.65,-0.65l-167.66 0c-0.36,0 -0.65,0.29 -0.65,0.65l0 52.08zm135.67 86.69l0 1.8c0,1.67 -1.36,3.03 -3.03,3.03l-96.35 0c-1.67,0 -3.03,-1.36 -3.03,-3.03l0 -1.8 102.41 0zm-102.41 -24.78l102.43 0 0 9.98 -102.43 0 0 -9.98zm-14.02 -40.2c9.93,0 17.98,8.05 17.98,17.98 0,9.93 -8.05,17.98 -17.98,17.98 -9.93,0 -17.98,-8.05 -17.98,-17.98 0,-9.93 8.05,-17.98 17.98,-17.98zm130.46 0c9.93,0 17.98,8.05 17.98,17.98 0,9.93 -8.05,17.98 -17.98,17.98 -9.93,0 -17.98,-8.05 -17.98,-17.98 0,-9.93 8.05,-17.98 17.98,-17.98zm29.89 -21.56c5.33,0.89 9.43,5.55 9.43,11.13l0 61.74c0,6.21 -5.07,11.28 -11.28,11.28l-42.04 0 0 -7.54 -102.43 0 0 7.54 -42.04 0c-6.21,0 -11.28,-5.07 -11.28,-11.28l0 -61.74c0,-5.58 4.09,-10.24 9.43,-11.13l0 -52.24c0,-6.21 5.07,-11.28 11.28,-11.28l167.66 0c6.21,0 11.28,5.07 11.28,11.28l0 52.24z"/></g><text x="0" y="211.61" fill="#000000" font-size="5px" font-weight="bold" font-family="'Helvetica Neue', Helvetica, Arial-Unicode, Arial, Sans-serif">Created by kareemov</text><text x="0" y="216.61" fill="#000000" font-size="5px" font-weight="bold" font-family="'Helvetica Neue', Helvetica, Arial-Unicode, Arial, Sans-serif">from the Noun Project</text></svg>